<svg xmlns="http://www.w3.org/2000/svg" viewBox="0 0 233.87 221.08"><defs><style>.cls-1{fill:#8cc46e;}</style></defs><title>Fichier 4correct</title><g id="Calque_2" data-name="Calque 2"><g id="Calque_1-2" data-name="Calque 1"><path d="M8.61,196.13,199.76,221a9.92,9.92,0,0,0,11.08-8.53L233.79,36A9.91,9.91,0,0,0,225.26,25L34.11.08A9.92,9.92,0,0,0,23,8.61L.08,185.06A9.91,9.91,0,0,0,8.61,196.13Z"/><path class="cls-1" d="M44.45,191.36l121.89,15.86a34.86,34.86,0,0,0,38.94-30L219.4,68.66a34.84,34.84,0,0,0-30-38.94L67.53,13.86a34.86,34.86,0,0,0-38.94,30L14.47,152.42A34.85,34.85,0,0,0,44.45,191.36Z"/><polygon points="66.86 102.93 53.31 116.54 99.76 165.93 196.42 69.27 182.31 55.16 99.42 138.04 66.86 102.93"/></g></g></svg>