<svg xmlns="http://www.w3.org/2000/svg" viewBox="0 0 76.76 154.72"><defs><style>.cls-1{fill:#f2ad8d;}.cls-2{fill:#fcebe3;}.cls-3{fill:#ffb691;}</style></defs><title>Fichier 2mainbaton</title><g id="Calque_2" data-name="Calque 2"><g id="Calque_1-2" data-name="Calque 1"><path class="cls-1" d="M76.76,153.75l-1.87,1H39.35c-1.58-12.29-.73-9.65-2.32-18.33-.41-2.2-.78-3.94-1.09-5a12.58,12.58,0,0,0-2.23-4.46,11.25,11.25,0,0,0-8.7-4.06l-3.93-8.16L7.86,87.16h0l-.37-.77s0-4.76.43-11c0,0,0-.11,0-.18A117.21,117.21,0,0,1,9.41,63.07c0-.26.09-.53.14-.79h0c1-5.37,2.57-10.33,4.88-13.26h0a7.35,7.35,0,0,1,2.68-2.23A35.38,35.38,0,0,1,31.8,44.25c4,.15,7.86,1,10.46,3.12.13-.94.24-1.89.33-2.81.28-2.6.46-5.11.83-7.33v0a15.68,15.68,0,0,1,1.49-4.9,17.37,17.37,0,0,1,9.42-8.36,3,3,0,0,1,2.92.44,2.61,2.61,0,0,1,.27.22,3.13,3.13,0,0,1,.92,2.9,69.59,69.59,0,0,0-1.12,8c0,.1,0,.21,0,.31-.7,8.87.1,20.67,7,29.67C77,82,66.05,97.58,65.84,106.28c-.06,2.4.91,8.4,2.36,15.86C72,141.64,76.16,152.65,76.76,153.75Z"/><path class="cls-2" d="M56.18,35.45l1.11.34c.26-3.25,2.76-9.76,3.2-11.95.23-1.14-2-.73-2.79.09A5.82,5.82,0,0,0,56.32,26a34,34,0,0,0-2,6.16A2.77,2.77,0,0,0,56.18,35.45Z"/><path d="M22.78,150.28l1.19.15c3.9.51,7.3-1,7.55-3.36L47.33,1.15,38.52,0,16.45,145.19C16.1,147.49,18.94,149.78,22.78,150.28Z"/><path class="cls-3" d="M14.85,49.18,43.58,59.8c2.41,1,4.43.36,5.4-2l1.81-4.48a4.74,4.74,0,0,0-2.62-6.15L25.34,36.61A6.94,6.94,0,0,0,17.16,39S10.06,47.49,14.85,49.18Z"/><path class="cls-3" d="M8.43,62.68,37.69,74.47a7.48,7.48,0,0,0,9.7-4.13h0a7.47,7.47,0,0,0-4.13-9.71L14,48.84C10.2,47.31,6.78,46.48,4.3,53h0C1.47,58.16,4.63,61.15,8.43,62.68Z"/><path class="cls-3" d="M6.3,74.82l23.6,8.31c3.29,1.32,6.5.7,7.82-2.58h0a6.45,6.45,0,0,0-3.56-8.38l-23-9.29c-3.28-1.32-6.53-2.79-8.37,3.57h0C1.12,70.83,3,73.57,6.3,74.82Z"/><path class="cls-3" d="M3.48,85.39,17,90.83a5.56,5.56,0,0,0,7.22-3.07h0a5.57,5.57,0,0,0-3.07-7.23L7.63,75.09A5.57,5.57,0,0,0,.4,78.17h0A5.56,5.56,0,0,0,3.48,85.39Z"/><path class="cls-2" d="M49.48,50.52a35.26,35.26,0,0,0-6-2.55,2.8,2.8,0,0,0-3.41,1.65L38.55,53.5A2.65,2.65,0,0,0,40,56.93a47.69,47.69,0,0,0,6.25,2.12A3.27,3.27,0,0,0,50.1,57L51,54.5A3.23,3.23,0,0,0,49.48,50.52Z"/><path class="cls-2" d="M46.54,65.49A34.57,34.57,0,0,0,40.62,63a2.78,2.78,0,0,0-3.37,1.63l-1.52,3.85a2.62,2.62,0,0,0,1.43,3.39,46.85,46.85,0,0,0,6.19,2.09,3.23,3.23,0,0,0,3.81-2l.9-2.46A3.19,3.19,0,0,0,46.54,65.49Z"/><path class="cls-2" d="M37.89,76.05a29,29,0,0,0-5-2.14A2.35,2.35,0,0,0,30,75.29L28.7,78.56a2.22,2.22,0,0,0,1.22,2.88,38.69,38.69,0,0,0,5.26,1.78,2.75,2.75,0,0,0,3.24-1.73l.76-2.09A2.72,2.72,0,0,0,37.89,76.05Z"/><path class="cls-2" d="M24.36,84.28A25.87,25.87,0,0,0,20,82.42a2,2,0,0,0-2.49,1.2l-1.12,2.83A1.94,1.94,0,0,0,17.44,89,35,35,0,0,0,22,90.5,2.39,2.39,0,0,0,24.81,89l.67-1.82A2.36,2.36,0,0,0,24.36,84.28Z"/></g></g></svg>